<?xml version="1.0" encoding="utf-8"?>
<!-- Generator: Adobe Illustrator 16.0.0, SVG Export Plug-In . SVG Version: 6.00 Build 0)  -->
<!DOCTYPE svg PUBLIC "-//W3C//DTD SVG 1.1//EN" "http://www.w3.org/Graphics/SVG/1.1/DTD/svg11.dtd">
<svg version="1.1" xmlns="http://www.w3.org/2000/svg" xmlns:xlink="http://www.w3.org/1999/xlink" x="0px" y="0px" width="1900px"
	 height="543.257px" viewBox="0 0 1900 543.257" enable-background="new 0 0 1900 543.257" xml:space="preserve">
<g id="Calque_2" display="none">
	<rect x="2.324" display="inline" fill="#00BDFF" width="1897.676" height="543.257"/>
</g>
<g id="Calque_1">
	<g id="MacBook">
		<path id="Shadow" fill="#ABABAB" d="M595.995,10.726h720.502c15.073,0,27.291,12.218,27.291,27.29v476.696
			c0,15.074-12.218,27.291-27.291,27.291H595.995c-15.073,0-27.292-12.217-27.292-27.291V38.016
			C568.704,22.944,580.922,10.726,595.995,10.726z"/>
		<path id="Laptop" fill="#C1C5C8" d="M595.995,0.001h720.502c15.073,0,27.291,12.218,27.291,27.29v476.697
			c0,15.076-12.218,27.291-27.291,27.291H595.995c-15.073,0-27.292-12.215-27.292-27.291V27.292
			C568.704,12.22,580.922,0.001,595.995,0.001z"/>
		<g id="Pomme">
			<path id="Feuille" fill="#FFFFFF" d="M955.376,224.18c0,0-0.144-9.802,4.751-16.108c5.473-7.047,15.489-9.154,15.489-9.154
				s1.426,8.383-4.271,16.294C964.021,225.376,955.376,224.18,955.376,224.18z"/>
			<path id="Corps" fill="#FFFFFF" d="M977.168,226.034c-8.214-0.168-13.976,4.231-20.166,4.222
				c-5.11-0.008-9.684-3.677-19.18-3.807c-18.312-0.247-24.894,20.145-24.292,33.117c0.979,21.168,15.628,46.57,26.6,46.703
				c8.837,0.109,9.868-4.256,17.538-4.188c7.805,0.076,10.076,4.047,18.02,3.979c13.688-0.118,23.314-27.816,23.314-27.816
				s-13.513-4.731-14.075-20.564c-0.476-13.379,10.98-21.389,10.98-21.389S989.588,226.287,977.168,226.034z"/>
		</g>
	</g>
	<g id="iphone">
		<g id="Boutons_1_">
			<path id="Lock_2_" fill="#ABABAB" d="M458.919,191.598v3.886c0,0.5-0.404,0.904-0.904,0.904h-24.396
				c-0.498,0-0.904-0.404-0.904-0.904v-3.886c0-0.5,0.406-0.904,0.904-0.904h24.396
				C458.516,190.694,458.919,191.098,458.919,191.598z"/>
			<path id="Mute_2_" fill="#ABABAB" d="M323.524,239.824h3.885c0.5,0,0.903,0.404,0.903,0.905v13.378
				c0,0.5-0.404,0.904-0.903,0.904h-3.885c-0.497,0-0.903-0.404-0.903-0.904v-13.378
				C322.623,240.229,323.027,239.824,323.524,239.824z"/>
			<path id="Plus_2_" fill="#ABABAB" d="M323.479,271.982h3.889c0.497,0,0.899,0.404,0.899,0.906v10.125
				c0,0.5-0.402,0.904-0.899,0.904h-3.889c-0.496,0-0.902-0.404-0.902-0.904v-10.125
				C322.577,272.386,322.982,271.982,323.479,271.982z"/>
			<path id="Moins_2_" fill="#ABABAB" d="M323.479,300.414h3.889c0.497,0,0.899,0.403,0.899,0.904v10.124
				c0,0.498-0.402,0.905-0.899,0.905h-3.889c-0.496,0-0.902-0.407-0.902-0.905v-10.124
				C322.577,300.817,322.982,300.414,323.479,300.414z"/>
		</g>
		<path id="Ombre_4_" fill="#D4D4D4" d="M348.418,199.503h113.479c12.871,0,24.03,10.982,24.03,23.863v293.971
			c0,12.881-10.979,23.867-23.853,23.867H348.238c-12.875,0-23.854-11.166-23.854-27.299V220.292
			C324.384,210.667,335.544,199.503,348.418,199.503z"/>
		<path id="Contour_2_" fill="#D4D4D4" d="M348.418,192.457h113.479c12.871,0,24.03,10.984,24.03,23.865v293.975
			c0,12.881-10.979,23.863-23.853,23.863H348.238c-12.875,0-23.854-11.164-23.854-27.299V213.25
			C324.384,203.622,335.544,192.457,348.418,192.457z"/>
		<path id="Body_2_" fill="#FFFFFF" d="M348.418,194.265h113.661c11.977,0,22.044,10.074,22.044,22.057v293.791
			c0,11.98-10.068,22.055-22.044,22.055H348.418c-11.975,0-22.045-10.252-22.045-25.486V213.068
			C326.373,204.339,336.443,194.265,348.418,194.265z"/>
		<g id="Cam_2_">
			<path id="Top_4_" fill="#ADADAD" d="M405.339,206.159c1.812,0,3.285,1.471,3.285,3.285c0,1.816-1.471,3.289-3.285,3.289
				c-1.813,0-3.286-1.473-3.286-3.289C402.053,207.63,403.524,206.159,405.339,206.159z"/>
			<path id="Left_2_" fill="#ADADAD" d="M382.604,220.713c1.1,0,1.988,0.891,1.988,1.989c0,1.101-0.889,1.991-1.988,1.991
				c-1.099,0-1.989-0.89-1.989-1.991C380.615,221.602,381.507,220.713,382.604,220.713z"/>
		</g>
		<path id="Speaker_2_" fill="#ADADAD" d="M393.866,220.814h22.941c1.042,0,1.891,0.845,1.891,1.89c0,1.044-0.849,1.889-1.891,1.889
			h-22.941c-1.042,0-1.891-0.845-1.891-1.889C391.978,221.66,392.824,220.814,393.866,220.814z"/>
		<rect id="Screen_2_" x="335.819" y="238.682" width="137.565" height="246.245"/>
		<g id="HomeBtn_2_">
			<path id="Circle_1_" fill="#D4D4D4" d="M404.886,494.312c8.482,0,15.359,6.883,15.359,15.369c0,8.488-6.877,15.367-15.359,15.367
				c-8.481,0-15.359-6.879-15.359-15.367C389.527,501.195,396.403,494.312,404.886,494.312 M404.886,493.41
				c-8.967,0-16.263,7.303-16.263,16.271c0,8.973,7.294,16.271,16.263,16.271c8.966,0,16.264-7.299,16.264-16.271
				C421.148,500.712,413.853,493.41,404.886,493.41L404.886,493.41z"/>
			<path id="Icon_2_" fill="#D4D4D4" d="M408.123,503.71c1.51,0,2.729,1.225,2.729,2.734v6.477c0,1.51-1.223,2.73-2.729,2.73h-6.473
				c-1.51,0-2.731-1.225-2.731-2.73v-6.477c0-1.514,1.223-2.734,2.731-2.734H408.123 M408.123,502.806h-6.473
				c-2.006,0-3.637,1.635-3.637,3.641v6.477c0,2.006,1.631,3.635,3.637,3.635h6.473c2.004,0,3.635-1.629,3.635-3.635v-6.477
				C411.758,504.441,410.127,502.806,408.123,502.806L408.123,502.806z"/>
		</g>
	</g>
	<g id="Tasse">
		<path id="Anse" fill="#FFFFFF" d="M136.348,380.447c0,7.559-6.129,13.686-13.688,13.686h-0.139
			c-7.559,0-13.688-6.127-13.688-13.686v-143.21c0-7.56,6.129-13.687,13.688-13.687h0.139c7.559,0,13.688,6.127,13.688,13.687
			V380.447z"/>
		<g id="Tasse_1_">
			<path id="Side_1_" fill="#DADBDB" d="M122.086,535.357c-65.115,0-118.053-51.977-119.683-116.695
				c-0.026,1.021-0.078,2.034-0.078,3.064c0,66.143,53.619,119.76,119.761,119.76c66.144,0,119.762-53.617,119.762-119.76
				c0-1.029-0.051-2.043-0.078-3.064C240.14,483.382,187.2,535.357,122.086,535.357z"/>
			<path id="Top_1_" fill="#FFFFFF" d="M122.086,535.357c65.114,0,118.054-51.977,119.683-116.695
				c0.027-1.022,0.078-2.035,0.078-3.065c0-66.144-53.619-119.763-119.762-119.763c-66.142,0-119.761,53.619-119.761,119.763
				c0,1.028,0.051,2.041,0.078,3.065C4.033,483.382,56.971,535.357,122.086,535.357z"/>
			<path id="Ombre_interne" fill="#DADBDB" d="M122.086,322.821c52.75,0,95.673,41.952,97.296,94.306
				c0.032-1.017,0.078-2.032,0.078-3.063c0-53.772-43.596-97.369-97.374-97.369c-53.777,0-97.372,43.597-97.372,97.369
				c0,1.028,0.045,2.047,0.079,3.063C26.414,364.773,69.338,322.821,122.086,322.821z"/>
		</g>
		<g id="Café_1_">
			<path id="Café" fill="#3A2103" d="M219.382,417.126c-1.623-52.354-44.547-94.307-97.296-94.307
				c-52.748,0-95.672,41.952-97.293,94.307c-0.032-1.018-0.079-2.033-0.079-3.064c0,53.781,43.595,97.375,97.372,97.375
				c53.778,0,97.374-43.594,97.374-97.375C219.46,415.091,219.415,416.11,219.382,417.126z"/>
			<path id="Ombre_1_" opacity="0.2" enable-background="new    " d="M122.086,327.416c51.979,0,94.436,40.729,97.22,92.01
				c0.042-0.764,0.054-1.53,0.077-2.299c-1.623-52.354-44.547-94.308-97.296-94.308c-52.748,0-95.672,41.953-97.293,94.308
				c0.023,0.769,0.034,1.535,0.075,2.299C27.652,368.146,70.109,327.416,122.086,327.416z"/>
		</g>
	</g>
	<g id="Carnet">
		<path id="Arrière_2_" d="M1429.638,541.726c-2.01,0-3.641-1.631-3.641-3.637V235.618c0-2.009,1.631-3.64,3.641-3.64h214.691
			c5.024,0,9.1,4.072,9.1,9.095v291.561c0,5.02-4.071,9.092-9.1,9.092H1429.638L1429.638,541.726z"/>
		<path id="Papier_2_" fill="#D6D3D0" d="M1429.638,537.13c-2.01,0-3.641-1.631-3.641-3.641V231.021
			c0-2.008,1.631-3.639,3.641-3.639h210.099c5.024,0,9.1,4.07,9.1,9.094v291.562c0,5.02-4.073,9.092-9.1,9.092H1429.638
			L1429.638,537.13z"/>
		<path id="Face_2_" d="M1425.999,538.664V215.698c0-2.008,1.631-3.638,3.641-3.638h214.691c5.025,0,9.099,4.071,9.099,9.092
			v294.629c0,5.021-4.071,9.092-9.099,9.092h-211.354l-0.034,15.322L1425.999,538.664z"/>
		<g id="strap_2_">
			<path id="Strap_2_" fill="#404040" d="M1612.959,527.939V212.104c0-0.871,0.809-1.576,1.806-1.576h8.303
				c0.998,0,1.806,0.705,1.806,1.576v315.835H1612.959L1612.959,527.939z"/>
			<path id="side_2_" fill="#313131" d="M1624.871,526.406v15.275c0,0.873-0.811,1.576-1.807,1.576h-8.303
				c-0.996,0-1.805-0.703-1.805-1.576v-15.275H1624.871z"/>
		</g>
	</g>
	<g id="Mouse">
		<path id="Side" fill="#BFC6CC" d="M1852.466,307.556c-15.516-19.555-52.621-17.287-52.621-17.287s-37.105-2.268-52.622,17.287
			c-15.516,19.559-11.501,97.729-11.501,119.609c0,21.875-0.161,61.098,4.231,79.41c4.284,17.859,12.789,33.871,58.136,34.646v0.035
			c0.591,0,1.175-0.008,1.756-0.01c0.581,0.002,1.163,0.01,1.756,0.01v-0.035c45.346-0.775,53.85-16.787,58.136-34.646
			c4.393-18.312,4.229-57.533,4.229-79.41C1863.966,405.287,1867.979,327.115,1852.466,307.556z"/>
		<path id="Dessus" fill="#FFFFFF" d="M1852.466,304.494c-15.516-19.557-52.621-17.287-52.621-17.287s-37.105-2.27-52.622,17.287
			c-15.516,19.557-11.501,97.728-11.501,119.605c0,21.877-0.161,61.1,4.231,79.412c4.284,17.861,12.789,33.871,58.136,34.652v0.031
			c0.591,0,1.175-0.008,1.756-0.014c0.581,0.006,1.163,0.014,1.756,0.014v-0.031c45.346-0.781,53.85-16.791,58.136-34.652
			c4.393-18.312,4.229-57.531,4.229-79.412C1863.966,402.22,1867.979,324.05,1852.466,304.494z"/>
		<g id="pomme">
			<path fill="#BFC6CC" d="M1799.613,471.462c0,0-0.038-2.549,1.263-4.186c1.453-1.83,4.113-2.377,4.113-2.377
				s0.379,2.176-1.138,4.23C1801.907,471.771,1799.613,471.462,1799.613,471.462z"/>
			<path fill="#BFC6CC" d="M1805.4,471.941c-2.184-0.041-3.709,1.102-5.354,1.098c-1.356-0.002-2.574-0.953-5.096-0.986
				c-4.863-0.062-6.611,5.23-6.451,8.6c0.26,5.498,4.151,12.094,7.066,12.129c2.346,0.027,2.62-1.105,4.654-1.088
				c2.076,0.021,2.68,1.053,4.787,1.029c3.634-0.027,6.193-7.221,6.193-7.221s-3.589-1.232-3.74-5.344
				c-0.125-3.471,2.916-5.555,2.916-5.555S1808.7,472.005,1805.4,471.941z"/>
		</g>
	</g>
</g>
</svg>
